<?xml version="1.0" encoding="utf-8"?>
<!-- Generator: Adobe Illustrator 21.0.0, SVG Export Plug-In . SVG Version: 6.00 Build 0)  -->
<svg version="1.1" id="Layer_1" xmlns="http://www.w3.org/2000/svg" xmlns:xlink="http://www.w3.org/1999/xlink" x="0px" y="0px"
	 viewBox="0 0 24 24" style="enable-background:new 0 0 24 24;" xml:space="preserve">
<style type="text/css">
	.st0{fill:#5ACC9B;}
	.st1{fill:#BDEBD7;}
	.st2{fill:#FFFFFF;}
	.st3{fill:#FF8976;}
	.st4{fill:#FFD0C8;}
	.st5{fill:#6CCBFF;}
	.st6{fill:#C4EAFF;}
	.st7{fill:#DB4CB3;}
	.st8{fill:#A143BC;}
	.st9{fill:#322E47;}
	.st10{fill:#59CDF8;}
	.st11{fill:#C857F2;}
	.st12{opacity:0.94;fill:#873FBC;}
	.st13{opacity:0.94;fill:#6B3096;}
</style>
<g>
	<g>
		<path class="st8" d="M20.4,24H3.6c-2,0-3.6-1.6-3.6-3.6V3.6C0,1.6,1.6,0,3.6,0h16.7c2,0,3.6,1.6,3.6,3.6v16.7
			C24,22.4,22.4,24,20.4,24z"/>
	</g>
</g>
<g>
	<path class="st2" d="M11.4,9.6c0,2-1.2,3.1-2.6,3.5l3.2,5H8.7L6,13.4H5.2v4.7H2.6V5.9h4.5C10.1,5.9,11.4,7.2,11.4,9.6z M6.8,11.2
		c1.3,0,2-0.4,2-1.6c0-1.3-0.8-1.5-2.2-1.5H5.2v3.1H6.8z"/>
	<path class="st2" d="M22.4,9.7c0,2.9-2.2,3.9-4.6,3.9h-1.6v4.5h-2.6V5.9H18C20.9,5.9,22.4,7.3,22.4,9.7z M17.8,11.4
		c1.2,0,2.1-0.4,2.1-1.7c0-1.5-1.1-1.6-2.4-1.6h-1.2v3.3H17.8z"/>
</g>
</svg>
