<?xml version="1.0" encoding="utf-8"?>
<!-- Generator: Adobe Illustrator 21.0.0, SVG Export Plug-In . SVG Version: 6.00 Build 0)  -->
<svg version="1.1" id="Layer_1" xmlns="http://www.w3.org/2000/svg" xmlns:xlink="http://www.w3.org/1999/xlink" x="0px" y="0px"
	 viewBox="0 0 24 24" style="enable-background:new 0 0 24 24;" xml:space="preserve">
<style type="text/css">
	.st0{fill:#FE4066;}
	.st1{fill:#FFFFFF;}
</style>
<g>
	<g>
		<g>
			<path class="st0" d="M20.4,24H3.6c-2,0-3.6-1.6-3.6-3.6V3.6C0,1.6,1.6,0,3.6,0h16.7c2,0,3.6,1.6,3.6,3.6v16.7
				C24,22.4,22.4,24,20.4,24z"/>
		</g>
	</g>
</g>
<g>
	<g>
		<path class="st1" d="M20.5,20c-0.6,0-1.1-0.5-1.1-1.1V6.4l-7,3.1c-0.3,0.1-0.6,0.1-1,0l-7-3.1V19c0,0.5-0.4,1-1,1s-1.1-0.5-1.1-1
			V5.4c0-0.5,0.2-0.9,0.6-1.2C3.3,4,3.8,3.9,4.3,4.1L12,7.4l7.7-3.3C20.1,3.9,20.6,4,21,4.3s0.6,0.7,0.6,1.2V19
			C21.6,19.5,21.1,20,20.5,20z"/>
	</g>
	<g>
		<path class="st1" d="M12.1,17.4c-0.1,0-0.2,0-0.3,0c-0.9,0-4-0.2-5.3-1.4c-0.4-0.4-0.4-1.1,0-1.5c0.4-0.4,0.9-0.3,1.5-0.1
			c0.5,0.2,2.2,0.8,3.8,0.8c1.7,0,3.3-0.5,4-0.8c0.6-0.3,1.2-0.3,1.5,0c0.4,0.4,0.4,1.1,0,1.5c-0.5,0.5-1.4,0.9-2.5,1.2
			C14.1,17.3,13.1,17.4,12.1,17.4z"/>
	</g>
</g>
</svg>
