<svg xmlns="http://www.w3.org/2000/svg" viewBox="0 0 40 40"><defs><style>.a{fill:#242424;}.b{fill:#1abcfe;}.c{fill:#0acf83;}.d{fill:#ff7262;}.e{fill:#f24e1e;}.f{fill:#a259ff;}</style></defs><title>1</title><path class="a" d="M32,38.023H8a6.018,6.018,0,0,1-6-6v-24a6.018,6.018,0,0,1,6-6H32a6.018,6.018,0,0,1,6,6v24A6.018,6.018,0,0,1,32,38.023Z"/><path class="b" d="M19.954,19.977a4.43,4.43,0,0,1,4.429-4.429,4.429,4.429,0,1,1,0,8.858A4.43,4.43,0,0,1,19.954,19.977Z"/><path class="c" d="M11.188,28.742a4.43,4.43,0,0,1,4.429-4.429h4.337v4.429a4.43,4.43,0,0,1-4.429,4.429A4.352,4.352,0,0,1,11.188,28.742Z"/><path class="d" d="M19.954,6.966V15.64h4.429a4.407,4.407,0,0,0,4.429-4.382,4.35,4.35,0,0,0-4.429-4.383H19.954Z"/><path class="e" d="M11.188,11.212a4.43,4.43,0,0,0,4.429,4.428h4.337V6.875H15.525A4.332,4.332,0,0,0,11.188,11.212Z"/><path class="f" d="M11.188,19.977a4.43,4.43,0,0,0,4.429,4.429h4.337V15.64H15.525A4.332,4.332,0,0,0,11.188,19.977Z"/></svg>