<svg id="图层_1" data-name="图层 1" xmlns="http://www.w3.org/2000/svg" viewBox="0 0 48 48"><defs><style>.cls-1{fill:#fe4066;}</style></defs><title>icon</title><path class="cls-1" d="M40.72,1H7.27A6.267,6.267,0,0,0,1,7.27V40.72A6.276,6.276,0,0,0,7.27,47H40.72A6.278,6.278,0,0,0,47,40.72V7.27A6.269,6.269,0,0,0,40.72,1ZM16.6,29.579a5.2,5.2,0,0,1-4.537,2.243,4.933,4.933,0,0,1-2.114-.5,3.94,3.94,0,0,1-1.795-1.735H8.1V37H4.465V16.9h3.47v2.054H8a4.355,4.355,0,0,1,4.2-2.493,6.406,6.406,0,0,1,2.034.339,4.779,4.779,0,0,1,1.865,1.236A5.682,5.682,0,0,1,17.528,20.3a10.491,10.491,0,0,1,.528,3.57A10.062,10.062,0,0,1,16.6,29.579Zm12.455-8.905c-.4-.03-.818-.05-1.266-.05a6.152,6.152,0,0,0-2.045.289,3.38,3.38,0,0,0-1.256.828,2.515,2.515,0,0,0-.568,1.067,4.326,4.326,0,0,0-.19,1.266v7.559H19.382V16.784h4.149v2.873h.079c.25-.379.509-.748.788-1.107a4.65,4.65,0,0,1,.878-.9,4.6,4.6,0,0,1,2.931-.868,5.93,5.93,0,0,1,.848.06Zm14.928,11.1h-3.57V29.369l-.05.05a3.978,3.978,0,0,1-1.8,1.7,5.272,5.272,0,0,1-2.274.519,4.977,4.977,0,0,1-4.507-2.423,10.327,10.327,0,0,1-1.4-5.435c.02-2.523.608-4.417,1.765-5.664A5.57,5.57,0,0,1,37.8,16.476a4.381,4.381,0,0,1,1.127.548,5.166,5.166,0,0,1,1.356,1.5l.05.06V11.63h3.65Z"/><path class="cls-1" d="M13.559,21.183a2.657,2.657,0,0,0-2.453-1.357,2.814,2.814,0,0,0-1.456.349,3.339,3.339,0,0,0-.967,1.008,5.616,5.616,0,0,0-.718,2.941A6.449,6.449,0,0,0,8.124,25.5a5.374,5.374,0,0,0,.419,1.466A2.923,2.923,0,0,0,9.52,28.1a2.455,2.455,0,0,0,1.586.5,2.5,2.5,0,0,0,1.635-.5,2.8,2.8,0,0,0,.958-1.137,5.432,5.432,0,0,0,.448-1.466,9.891,9.891,0,0,0,.1-1.376,8.46,8.46,0,0,0-.14-1.575A4.161,4.161,0,0,0,13.559,21.183Z"/><path class="cls-1" d="M39.785,20.993a2.686,2.686,0,0,0-2.463-1.356,2.8,2.8,0,0,0-1.446.349,3.494,3.494,0,0,0-.978,1.007,5.532,5.532,0,0,0-.708,2.942,7.038,7.038,0,0,0,.15,1.376,5.049,5.049,0,0,0,.429,1.466,2.815,2.815,0,0,0,.967,1.136,2.409,2.409,0,0,0,1.586.5,2.5,2.5,0,0,0,1.635-.5,2.792,2.792,0,0,0,.957-1.136,4.8,4.8,0,0,0,.449-1.466,9.9,9.9,0,0,0,.1-1.376,9.4,9.4,0,0,0-.13-1.576A4.434,4.434,0,0,0,39.785,20.993Z"/></svg>