<?xml version="1.0" encoding="utf-8"?>
<!-- Generator: Adobe Illustrator 21.0.0, SVG Export Plug-In . SVG Version: 6.00 Build 0)  -->
<svg version="1.1" id="Layer_1" xmlns="http://www.w3.org/2000/svg" xmlns:xlink="http://www.w3.org/1999/xlink" x="0px" y="0px"
	 viewBox="0 0 40 40" style="enable-background:new 0 0 40 40;" xml:space="preserve">
<style type="text/css">
	.st0{fill:#DB4CB3;}
	.st1{fill:#2E081F;}
	.st2{fill:#FFFFFF;}
</style>
<g>
	<g>
		<path class="st0" d="M36.5,38.2H3.4c-0.9,0-1.6-0.7-1.6-1.6V3.4c0-0.9,0.7-1.6,1.6-1.6h33c0.9,0,1.6,0.7,1.6,1.6v33
			C38.2,37.5,37.4,38.2,36.5,38.2z"/>
	</g>
	<g>
		<path class="st1" d="M34.7,36.4H5.2c-0.9,0-1.6-0.7-1.6-1.6V5.3c0-0.9,0.7-1.6,1.6-1.6h29.4c0.9,0,1.6,0.7,1.6,1.6v29.4
			C36.3,35.7,35.6,36.4,34.7,36.4z"/>
	</g>
	<g>
		<path class="st2" d="M20,28.8h-3.6l-3.5-5.9l-3.4,5.9H5.8l5.3-9.1l-5.2-8.8h3.6l3.3,5.7l3.3-5.7h3.6l-5.1,8.8L20,28.8z"/>
		<path class="st2" d="M29.2,17v-5.4l3.5-0.3v17.5h-3.5V28h-0.2c-0.8,0.8-1.9,1.1-3.2,1.1c-3.5,0-4.8-2.9-4.8-6.1
			c0-3.6,1.5-6.6,5.4-6.6C27.5,16.3,28.3,16.5,29.2,17L29.2,17z M26.8,26.4c1.1,0,1.7-0.3,2.5-0.5v-6.6c-0.6-0.3-1.2-0.4-2.2-0.4
			c-1.8,0-2.5,1.1-2.5,3.8C24.5,25,25,26.4,26.8,26.4z"/>
	</g>
</g>
</svg>
