<?xml version="1.0" encoding="utf-8"?>
<!-- Generator: Adobe Illustrator 21.0.0, SVG Export Plug-In . SVG Version: 6.00 Build 0)  -->
<svg version="1.1" id="Layer_1" xmlns="http://www.w3.org/2000/svg" xmlns:xlink="http://www.w3.org/1999/xlink" x="0px" y="0px"
	 viewBox="0 0 24 24" style="enable-background:new 0 0 24 24;" xml:space="preserve">
<style type="text/css">
	.st0{fill:#CE45BB;}
	.st1{fill:#FFFFFF;}
</style>
<g>
	<path class="st0" d="M20.4,24.1H3.6c-2,0-3.6-1.6-3.6-3.6V3.7c0-2,1.6-3.6,3.6-3.6h16.7c2,0,3.6,1.6,3.6,3.6v16.7
		C24,22.5,22.4,24.1,20.4,24.1z"/>
</g>
<g>
	<path class="st1" d="M11.7,17.8H9.2l-2.4-4.1l-2.4,4.1H1.9l3.6-6.3L2,5.4h2.5l2.3,3.9l2.3-3.9h2.5l-3.5,6.1L11.7,17.8z"/>
	<path class="st1" d="M18.2,9.6V5.9l2.4-0.2v12.1h-2.4v-0.6h-0.1c-0.6,0.6-1.3,0.8-2.2,0.8c-2.5,0-3.3-2-3.3-4.2
		c0-2.5,1-4.6,3.7-4.6C17,9.2,17.6,9.3,18.2,9.6L18.2,9.6z M16.5,16.1c0.8,0,1.2-0.2,1.7-0.3v-4.5c-0.4-0.2-0.8-0.3-1.5-0.3
		c-1.3,0-1.7,0.8-1.7,2.6C14.9,15.2,15.3,16.1,16.5,16.1z"/>
</g>
</svg>
