<?xml version="1.0" encoding="utf-8"?>
<!-- Generator: Adobe Illustrator 21.0.0, SVG Export Plug-In . SVG Version: 6.00 Build 0)  -->
<svg version="1.1" id="Layer_1" xmlns="http://www.w3.org/2000/svg" xmlns:xlink="http://www.w3.org/1999/xlink" x="0px" y="0px"
	 viewBox="0 0 24 24" style="enable-background:new 0 0 24 24;" xml:space="preserve">
<style type="text/css">
	.st0{fill:#322E47;}
	.st1{fill:#59CDF8;}
</style>
<g>
	<path class="st0" d="M20.4,24H3.6c-2,0-3.6-1.6-3.6-3.6V3.6C0,1.6,1.6,0,3.6,0h16.7c2,0,3.6,1.6,3.6,3.6v16.7
		C24,22.4,22.4,24,20.4,24z"/>
</g>
<g>
	<g>
		<path class="st1" d="M5,13.7v5.5H3.1V4.6h4.1c1.6,0,2.8,0.4,3.7,1.1c0.9,0.8,1.3,1.8,1.3,3.3c0,1.4-0.5,2.6-1.5,3.5
			s-2.3,1.3-3.8,1.3H5V13.7z M5,6.2V12h1.7c1.1,0,2-0.3,2.6-0.8c0.6-0.5,0.9-1.3,0.9-2.2c0-1.9-1.1-2.8-3.3-2.8H5z"/>
	</g>
	<g>
		<path class="st1" d="M14,16.9c0.9,0.7,1.8,1,2.9,1c1.4,0,2.2-0.5,2.2-1.4c0-0.4-0.2-0.7-0.5-1s-1-0.6-1.9-0.9
			c-1.2-0.5-1.9-0.9-2.3-1.4c-0.3-0.5-0.5-1-0.5-1.7c0-0.9,0.4-1.7,1.2-2.2c0.8-0.6,1.7-0.8,2.9-0.8c0.9,0,1.7,0.2,2.5,0.5v1.8
			c-0.8-0.5-1.7-0.8-2.6-0.8c-0.6,0-1.1,0.1-1.4,0.4c-0.4,0.3-0.6,0.6-0.6,1s0.1,0.7,0.4,1c0.3,0.2,0.9,0.5,1.8,0.9
			c1.2,0.4,1.9,0.9,2.4,1.3c0.4,0.5,0.6,1,0.6,1.7c0,1-0.4,1.7-1.2,2.3c-0.8,0.5-1.8,0.8-3,0.8c-1.1,0-2-0.2-2.8-0.6"/>
	</g>
</g>
</svg>
