<?xml version="1.0" encoding="utf-8"?>
<!-- Generator: Adobe Illustrator 21.0.0, SVG Export Plug-In . SVG Version: 6.00 Build 0)  -->
<svg version="1.1" id="Layer_1" xmlns="http://www.w3.org/2000/svg" xmlns:xlink="http://www.w3.org/1999/xlink" x="0px" y="0px"
	 viewBox="0 0 40 40" style="enable-background:new 0 0 40 40;" xml:space="preserve">
<style type="text/css">
	.st0{fill:#59CDF8;}
	.st1{fill:#322E47;}
</style>
<g>
	<g>
		<path class="st0" d="M36.6,38.2H3.5c-0.9,0-1.6-0.7-1.6-1.6V3.4c0-0.9,0.7-1.6,1.6-1.6h33c0.9,0,1.6,0.7,1.6,1.6v33
			C38.2,37.5,37.5,38.2,36.6,38.2z"/>
	</g>
	<g>
		<path class="st1" d="M34.8,36.4H5.3c-0.9,0-1.6-0.7-1.6-1.6V5.3c0-0.9,0.7-1.6,1.6-1.6h29.4c0.9,0,1.6,0.7,1.6,1.6v29.4
			C36.4,35.7,35.7,36.4,34.8,36.4z"/>
	</g>
	<g>
		<g>
			<path class="st0" d="M12.5,21.3v5.9h-2V11.4h4.5c1.7,0,3,0.4,3.9,1.3c0.9,0.8,1.4,2,1.4,3.5c0,1.5-0.5,2.8-1.6,3.7
				c-1.1,0.9-2.5,1.4-4.1,1.4H12.5z M12.5,13.2v6.4h1.9c1.3,0,2.2-0.3,2.8-0.9c0.6-0.5,0.9-1.4,0.9-2.4c0-2-1.3-3.1-3.6-3.1H12.5z"
				/>
		</g>
		<g>
			<path class="st0" d="M23.3,24.7c1,0.7,1.9,1.1,3.1,1.1c1.5,0,2.3-0.5,2.3-1.5c0-0.5-0.2-0.8-0.5-1.1c-0.4-0.3-1-0.6-2.1-1
				c-1.3-0.5-2-1-2.5-1.5c-0.4-0.5-0.5-1.1-0.5-1.8c0-1,0.5-1.8,1.3-2.4c0.9-0.5,1.9-0.9,3.2-0.9c0.9,0,1.8,0.2,2.7,0.5v1.9
				c-0.9-0.5-1.8-0.8-2.8-0.8c-0.6,0-1.2,0.1-1.5,0.5c-0.5,0.3-0.5,0.6-0.5,1.1c0,0.5,0.1,0.8,0.5,1c0.4,0.2,0.9,0.5,1.9,0.9
				c1.3,0.5,2.1,0.9,2.5,1.5c0.5,0.5,0.7,1.1,0.7,1.8c0,1-0.5,1.8-1.3,2.5c-0.9,0.5-1.9,0.9-3.3,0.9c-1.2,0-2.2-0.2-3.1-0.7"/>
		</g>
	</g>
</g>
</svg>
