<?xml version="1.0" encoding="UTF-8"?>
<svg width="24px" height="24px" viewBox="0 0 24 24" version="1.1" xmlns="http://www.w3.org/2000/svg" xmlns:xlink="http://www.w3.org/1999/xlink">
    <!-- Generator: Sketch 52.6 (67491) - http://www.bohemiancoding.com/sketch -->
    <title>idoc</title>
    <desc>Created with Sketch.</desc>
    <g id="idoc" stroke="none" stroke-width="1" fill="none" fill-rule="evenodd">
        <g id="Group">
            <path d="M16,1 L21,6 L21,21 C21,22.1045695 20.1045695,23 19,23 L5,23 C3.8954305,23 3,22.1045695 3,21 L3,3 C3,1.8954305 3.8954305,1 5,1 L16,1 Z" id="Combined-Shape" fill="#FE4066"></path>
            <path d="M15,2 L15,5.75 C15,6.44035594 15.5596441,7 16.25,7 L20,7 L15,2 Z" id="Path" fill="#FFFFFF" fill-rule="nonzero"></path>
            <path d="M15,3.70710678 L15,6 C15,6.55228475 15.4477153,7 16,7 L18.2928932,7 L15,3.70710678 Z M14.0017041,2.54137206 C13.9900364,2.39999853 14.0382839,2.2546093 14.1464466,2.14644661 C14.3417088,1.95118446 14.6582912,1.95118446 14.8535534,2.14644661 L19.8535534,7.14644661 C20.0488155,7.34170876 20.0488155,7.65829124 19.8535534,7.85355339 C19.7218724,7.98523442 19.5350161,8.0281123 19.3674029,7.98218703 L19.3849699,8 L16,8 C14.8954305,8 14,7.1045695 14,6 L14,2.53964411 L14.0017041,2.54137206 Z" id="Combined-Shape" fill-rule="nonzero"></path>
        </g>
        <path d="M6.08496483,9.1152684 L11.976598,11.4128174 L17.8577313,9.11936298 C17.8914798,9.10620214 17.9256225,9.09579103 17.959912,9.0880211 C18.0606017,9.03194611 18.1765702,9 18.3,9 C18.6865993,9 19,9.31340068 19,9.7 L19,20.3 C19,20.6865993 18.6865993,21 18.3,21 C17.9134007,21 17.6,20.6865993 17.6,20.3 L17.6,10.8161366 L11.9660758,13.0131874 L11.8767183,12.9701342 L6.4,10.8343887 L6.4,20.3 C6.4,20.6865993 6.08659932,21 5.7,21 C5.31340068,21 5,20.6865993 5,20.3 L5,9.7 C5,9.31340068 5.31340068,9 5.7,9 C5.84221209,9 5.97451919,9.04240829 6.08496483,9.1152684 Z M8.48362585,16.7970054 C10.1404229,17.4982654 11.3125477,17.8488954 12,17.8488954 C12.6874523,17.8488954 13.8595771,17.4982654 15.5163742,16.7970054 C15.7665549,16.691125 16.0552041,16.8080921 16.1610944,17.0582686 C16.1867698,17.1189294 16.2,17.1841292 16.2,17.25 L16.2000187,17.5407064 C16.2000187,17.8222879 16.0358758,18.0780304 15.7798783,18.1953054 C14.982405,18.5606357 14.390185,18.7984801 14.0032182,18.9088385 C13.5511194,19.0377718 12.88338,19.1340893 12,19.1977909 C11.1099201,19.1273829 10.4505886,19.0310654 10.0220054,18.9088385 C9.6536406,18.8037852 9.05472884,18.565229 8.22527014,18.19317 L8.22529312,18.1931188 C7.96651537,18.0770423 7.8,17.819851 7.8,17.5362321 L7.8,17.25 C7.8,16.9783365 8.02022677,16.7581098 8.29189025,16.7581098 C8.35776103,16.7581098 8.42296085,16.7713399 8.48362165,16.7970154 Z" id="Combined-Shape" fill="#FFFFFF"></path>
    </g>
</svg>