<?xml version="1.0" encoding="utf-8"?>
<!-- Generator: Adobe Illustrator 21.0.0, SVG Export Plug-In . SVG Version: 6.00 Build 0)  -->
<svg version="1.1" id="Layer_1" xmlns="http://www.w3.org/2000/svg" xmlns:xlink="http://www.w3.org/1999/xlink" x="0px" y="0px"
	 viewBox="0 0 24 24" style="enable-background:new 0 0 24 24;" xml:space="preserve">
<style type="text/css">
	.st0{fill:#F49537;}
	.st1{fill:#FFD4A1;}
	.st2{fill:#FFFFFF;}
</style>
<g>
	<path class="st0" d="M22.7,8.4V22c0,1.1-0.9,2-1.9,2H3.2c-1,0-1.9-0.9-1.9-2V2c0-1.1,0.9-2,1.9-2h11.1"/>
	<path class="st1" d="M15.1,8.4h7.6L14.3,0l0.1,7.7C14.4,8.1,14.7,8.4,15.1,8.4z"/>
	<rect x="3.9" class="st2" width="3.5" height="2.2"/>
	<rect x="7.4" y="2.2" class="st2" width="3.5" height="2.2"/>
	<rect x="7.4" y="6.5" class="st2" width="3.5" height="2.2"/>
	<rect x="3.9" y="4.4" class="st2" width="3.5" height="2.2"/>
	<rect x="3.9" y="8.7" class="st2" width="3.5" height="2.2"/>
	<rect x="3.9" y="13.1" class="st2" width="3.5" height="2.2"/>
	<rect x="7.4" y="10.9" class="st2" width="3.5" height="2.2"/>
</g>
</svg>
