<?xml version="1.0" encoding="utf-8"?>
<!-- Generator: Adobe Illustrator 21.0.0, SVG Export Plug-In . SVG Version: 6.00 Build 0)  -->
<svg version="1.1" id="Layer_1" xmlns="http://www.w3.org/2000/svg" xmlns:xlink="http://www.w3.org/1999/xlink" x="0px" y="0px"
	 viewBox="0 0 24 24" style="enable-background:new 0 0 24 24;" xml:space="preserve">
<style type="text/css">
	.st0{fill:#12B2DD;}
	.st1{fill:#C4EAFF;}
	.st2{fill:#FFFFFF;}
</style>
<path class="st0" d="M22.7,7v15c0,1.1-0.9,2-1.9,2H3.2c-1,0-1.9-0.9-1.9-2V2c0-1.1,0.9-2,1.9-2h12"/>
<path class="st1" d="M16,7h6.7l-7.5-7l0.1,6.3C15.3,6.7,15.6,7,16,7z"/>
<path class="st2" d="M4.5,9.2h2.1L8.8,17l0,0L11,9.2h2l2.3,7.8l2.1-7.8h2l-3.1,10.1h-2.1l-2.3-7.8l0,0l-2.2,7.8H7.6L4.5,9.2z"/>
</svg>
