<?xml version="1.0" encoding="UTF-8"?>
<svg width="30px" height="30px" viewBox="0 0 30 30" version="1.1" xmlns="http://www.w3.org/2000/svg" xmlns:xlink="http://www.w3.org/1999/xlink">
    <!-- Generator: Sketch 55.2 (78181) - https://sketchapp.com -->
    <title>icon/axure/gray</title>
    <desc>Created with Sketch.</desc>
    <g id="iDOC项目补充1" stroke="none" stroke-width="1" fill="none" fill-rule="evenodd" opacity="0.8">
        <g id="空项目N集中切图" transform="translate(-1119.000000, -612.000000)">
            <g id="编组-6" transform="translate(506.000000, 602.000000)">
                <g id="编组-5" transform="translate(586.000000, 0.000000)">
                    <g id="icon/axure/gray" transform="translate(27.000000, 10.000000)">
                        <rect id="矩形" fill="#FFFFFF" x="0" y="0" width="29.2682927" height="29.2682927" rx="2"></rect>
                        <path d="M7.51504557,29.9918241 L7.51504557,29.5269127 C7.51839005,25.60694 7.51839005,21.6869674 7.52173453,17.7669947 C7.52842349,12.0107892 7.53845693,6.25458363 7.54514589,0.498378075 C7.54514589,0.0200878978 7.54514589,0.0200878978 8.03009543,0.0200878978 C14.6621984,0.0167432112 21.2943014,0.0234325843 27.9264043,9.85990731e-06 C29.0936277,-0.0033249081 30.0033261,0.839536103 29.9999909,2.08041481 C29.9665369,10.7398083 29.9799148,19.3958571 29.9799148,28.0552506 C29.9799148,29.2359249 29.2307514,29.9884794 28.0534946,29.9918241 C21.3511575,29.9951688 14.645476,29.9951688 7.94313896,29.9951688 C7.82273769,29.9918241 7.70568091,29.9918241 7.51504557,29.9918241 Z M18.5317612,27.4598964 C17.5752401,25.8644809 16.6521637,24.3292698 15.7290874,22.790714 C15.9799233,22.7004074 16.207348,22.6335137 16.4247391,22.5398625 C18.571895,21.6234183 18.4481493,19.0413203 17.4381164,17.9810547 C16.7759095,17.2887046 15.9431341,16.96427 15.0267467,16.9174444 C13.6454766,16.8472059 12.2575176,16.8739634 10.8729031,16.8405166 C10.5618665,16.8338272 10.5050103,16.9508912 10.5050103,17.2318449 C10.5150437,20.5129824 10.5116993,23.7941199 10.5116993,27.0752574 C10.5116993,27.1889768 10.5250772,27.3060408 10.5317661,27.4297942 L12.4548419,27.4297942 L12.4548419,22.9813611 C12.7993233,22.9813611 13.1070154,23.0014292 13.411363,22.9746717 C13.6889548,22.9479142 13.8327675,23.0582889 13.9598577,23.2991063 C14.6588539,24.6035341 15.3712281,25.8979278 16.0869467,27.1923215 C16.1438028,27.2960067 16.2541707,27.4398283 16.3411271,27.4431729 C17.0434678,27.4699304 17.749153,27.4598964 18.5317612,27.4598964 Z M21.1203884,23.1051145 C21.682261,23.1051145 22.1906219,23.1184932 22.6989828,23.1017698 C23.5919588,23.0716676 24.458179,22.9378802 25.2675431,22.5097603 C27.1605185,21.5063543 27.0835955,18.4392767 25.4448005,17.476007 C24.86955,17.1381937 24.2508213,16.9375125 23.5953033,16.9140997 C22.2708894,16.8672741 20.943131,16.8773081 19.6187171,16.8438613 C19.2842692,16.8338272 19.1739013,16.9207891 19.1739013,17.2719811 C19.1872792,20.5297058 19.1839348,23.7840859 19.1839348,27.0418106 C19.1839348,27.1689086 19.1939682,27.2960067 19.2006572,27.4364836 L21.117044,27.4364836 C21.1203884,25.991579 21.1203884,24.5734319 21.1203884,23.1051145 Z M5.56186951,0.0100538381 L5.56186951,29.9784454 C5.44146825,29.9851347 5.32775594,29.9985135 5.21404364,29.9985135 C4.11370986,29.9985135 3.01003161,30.0018582 1.90969783,29.9985135 C0.75919686,29.9951688 1.03028697e-13,29.2325803 1.03028697e-13,28.0753187 C0.00334447956,19.3690996 0.00668895912,10.6628805 0.0133779182,1.95331673 C0.0133779182,0.789365805 0.789297176,0.0167432112 1.94983158,0.0133985247 C3.026754,0.0100538381 4.1070209,0.0100538381 5.18394332,0.0100538381 L5.56186951,0.0100538381 Z M12.4548419,21.3458094 L12.4548419,18.4827577 C13.4147075,18.5362727 14.3712287,18.3523149 15.300994,18.6700601 C15.8862779,18.8707413 16.1839366,19.2955165 16.19397,19.8607685 C16.2040035,20.5096377 15.9297562,20.944447 15.3310943,21.1852644 C15.1471479,21.2588475 14.9464792,21.3324306 14.7524993,21.33912 C13.9999914,21.3558434 13.2474835,21.3458094 12.4548419,21.3458094 Z M21.1371108,21.5264224 L21.1371108,18.4560002 C21.9665418,18.5028258 22.7825948,18.4961364 23.5785809,18.6098558 C24.3210554,18.7168857 24.7056705,19.2185887 24.7190484,19.887526 C24.7357708,20.6233571 24.3979784,21.1585069 23.6454705,21.2989837 C22.8361064,21.44615 21.9966421,21.4528393 21.1371108,21.5264224 Z" id="形状结合" fill="#A901C9" fill-rule="nonzero"></path>
                    </g>
                </g>
            </g>
        </g>
    </g>
</svg>