<?xml version="1.0" encoding="UTF-8"?>
<svg width="24px" height="24px" viewBox="0 0 24 24" version="1.1" xmlns="http://www.w3.org/2000/svg" xmlns:xlink="http://www.w3.org/1999/xlink">
    <!-- Generator: Sketch 52.6 (67491) - http://www.bohemiancoding.com/sketch -->
    <title>confluence</title>
    <desc>Created with Sketch.</desc>
    <defs>
        <linearGradient x1="100%" y1="32.7520718%" x2="0%" y2="53.5952784%" id="linearGradient-1">
            <stop stop-color="#2783FF" offset="0%"></stop>
            <stop stop-color="#0254CD" offset="100%"></stop>
        </linearGradient>
    </defs>
    <g id="confluence" stroke="none" stroke-width="1" fill="none" fill-rule="evenodd">
        <g id="Group-2">
            <path d="M16,1 L21,6 L21,21 C21,22.1045695 20.1045695,23 19,23 L5,23 C3.8954305,23 3,22.1045695 3,21 L3,3 C3,1.8954305 3.8954305,1 5,1 L16,1 Z" id="Combined-Shape" fill="url(#linearGradient-1)"></path>
            <path d="M15,2 L15,5.75 C15,6.44035594 15.5596441,7 16.25,7 L20,7 L15,2 Z" id="Path" fill="#FFFFFF" fill-rule="nonzero"></path>
            <path d="M15,3.70710678 L15,6 C15,6.55228475 15.4477153,7 16,7 L18.2928932,7 L15,3.70710678 Z M14.0017041,2.54137206 C13.9900364,2.39999853 14.0382839,2.2546093 14.1464466,2.14644661 C14.3417088,1.95118446 14.6582912,1.95118446 14.8535534,2.14644661 L19.8535534,7.14644661 C20.0488155,7.34170876 20.0488155,7.65829124 19.8535534,7.85355339 C19.7218724,7.98523442 19.5350161,8.0281123 19.3674029,7.98218703 L19.3849699,8 L16,8 C14.8954305,8 14,7.1045695 14,6 L14,2.53964411 L14.0017041,2.54137206 Z" id="Combined-Shape" fill-rule="nonzero"></path>
        </g>
        <g id="Group-3-Copy" transform="translate(5.000000, 7.000000)" fill="#FFFFFF">
            <path d="M1.88591934,1.79118026 C1.88798255,1.78702447 1.89011999,1.78290594 1.89233063,1.77882666 C1.99464101,1.59003355 2.23062701,1.51992545 2.41941609,1.62224326 C3.38662492,2.14639112 4.09380707,2.52295491 4.54096256,2.75193463 C5.04101838,3.00800359 5.48577449,3.2267804 5.87523087,3.40826506 C6.32335194,3.6097725 6.65170102,3.73580141 6.86027813,3.78635179 C7.17314379,3.86217737 7.41413644,3.83476004 7.84488597,3.78635179 C8.27563551,3.73794355 8.34673993,3.70189742 8.56947298,3.60304534 C8.71796168,3.53714396 9.02239954,3.21315331 9.48278656,2.6310734 L10.2375101,1.60533164 C10.3594819,1.4395603 10.5895092,1.39755783 10.7621954,1.50952527 L13.6600253,3.38843923 C13.6617776,3.38957543 13.6635208,3.39072575 13.6652546,3.39189005 C13.843467,3.51156436 13.8909215,3.75304922 13.7712471,3.93126157 L13.7713405,3.93132425 C13.2708572,4.67661626 12.9305449,5.16368678 12.7504037,5.39253583 C12.1406641,6.16714108 11.6714895,6.63549457 11.3887821,6.84302925 C10.7087004,7.34227529 10.2882678,7.63802477 9.68306589,7.79029337 C9.07786402,7.94256197 9.01068449,7.98698956 8.1122065,7.98698956 C7.21372851,7.98698956 6.81119676,7.94138543 6.13798191,7.79029337 C5.68917201,7.68956532 5.15683222,7.51742365 4.54096256,7.27386835 C3.50926462,6.82944161 2.76054668,6.47741432 2.29480875,6.21778648 C1.88402608,5.98879372 1.31503737,5.64878379 0.587842603,5.19775669 C0.417387833,5.09203575 0.355306214,4.87401486 0.444499678,4.69435887 L1.88591934,1.79118026 Z M11.9566743,14.1958093 C11.9546111,14.1999651 11.9524736,14.2040836 11.950263,14.2081629 C11.8479526,14.396956 11.6119666,14.4670641 11.4231775,14.3647463 C10.4559687,13.8405984 9.74878654,13.4640346 9.30163106,13.2350549 C8.80157524,12.978986 8.35681913,12.7602092 7.96736274,12.5787245 C7.51924168,12.3772171 7.19089259,12.2511881 6.98231549,12.2006378 C6.66944983,12.1248122 6.42845718,12.1522295 5.99770764,12.2006378 C5.56695811,12.249046 5.49585369,12.2850921 5.27312064,12.3839442 C5.12463193,12.4498456 4.82019407,12.7738362 4.35980706,13.3559162 L3.6050835,14.3816579 C3.48311174,14.5474293 3.25308443,14.5894317 3.08039818,14.4774643 L0.182568331,12.5985503 C0.18081597,12.5974141 0.179072795,12.5962638 0.177338976,12.5950995 C-0.000873379269,12.4754252 -0.0483278404,12.2339403 0.0713464701,12.055728 L0.0712531299,12.0556653 C0.571736425,11.3103733 0.912048679,10.8233028 1.09218989,10.5944537 C1.70192951,9.81984848 2.17110409,9.35149499 2.45381147,9.14396031 C3.13389321,8.64471426 3.55432586,8.34896479 4.15952773,8.19669619 C4.7647296,8.04442759 4.83190913,8 5.73038712,8 C6.62886511,8 7.03139685,8.04560412 7.70461171,8.19669619 C8.15342161,8.29742423 8.68576139,8.4695659 9.30163106,8.71312121 C10.333329,9.15754795 11.0820469,9.50957524 11.5477849,9.76920307 C11.9585675,9.99819584 12.5275562,10.3382058 13.254751,10.7892329 C13.4252058,10.8949538 13.4872874,11.1129747 13.3980939,11.2926307 L11.9566743,14.1958093 Z" id="Combined-Shape"></path>
        </g>
    </g>
</svg>