<?xml version="1.0" encoding="utf-8"?>
<!-- Generator: Adobe Illustrator 21.0.0, SVG Export Plug-In . SVG Version: 6.00 Build 0)  -->
<svg version="1.1" id="Layer_1" xmlns="http://www.w3.org/2000/svg" xmlns:xlink="http://www.w3.org/1999/xlink" x="0px" y="0px"
	 viewBox="0 0 40 40" style="enable-background:new 0 0 40 40;" xml:space="preserve">
<style type="text/css">
	.st0{fill:#FDB300;}
	.st1{fill:#EA6C00;}
	.st2{fill:#FDAD00;}
	.st3{fill:#FDD231;}
	.st4{fill:#FEEEB7;}
</style>
<path class="st0" d="M8.7,2.5L20,1.4l11.3,1.2L40,14.1L20,37.2l-20-23L8.7,2.5z"/>
<path class="st1" d="M8.1,14.2l11.9,23l-20-23 M31.9,14.2L20,37.2l20-23.1"/>
<path class="st2" d="M8.1,14.2h23.8L20,37.2"/>
<path class="st3" d="M20,1.4L8.7,2.5L8.1,14.2 M20,1.4l11.3,1.2l0.6,11.6"/>
<path class="st2" d="M40,14.2L31.3,2.6l0.6,11.6 M0,14.2L8.7,2.6L8.1,14.2"/>
<path class="st4" d="M20,1.4L8.1,14.2h23.8"/>
</svg>
