<?xml version="1.0" encoding="utf-8"?>
<!-- Generator: Adobe Illustrator 21.0.0, SVG Export Plug-In . SVG Version: 6.00 Build 0)  -->
<svg version="1.1" id="Layer_1" xmlns="http://www.w3.org/2000/svg" xmlns:xlink="http://www.w3.org/1999/xlink" x="0px" y="0px"
	 viewBox="0 0 24 24" style="enable-background:new 0 0 24 24;" xml:space="preserve">
<style type="text/css">
	.st0{fill:#7498C4;}
	.st1{fill:#DEE6F9;}
	.st2{fill:#FFFFFF;}
</style>
<path class="st0" d="M23.4,8.4V22c0,1.1-0.9,2-1.9,2H4c-1,0-1.9-0.9-1.9-2V2C2.1,0.9,3,0,4,0h11.1"/>
<path class="st1" d="M15.9,8.3l7.5,0.1L15.1,0v7.6C15.1,8,15.5,8.3,15.9,8.3z"/>
<path class="st2" d="M11.7,7.2H6.5C6.2,7.2,6,6.9,6,6.5l0,0c0-0.4,0.2-0.7,0.5-0.7h5.2c0.3,0,0.5,0.3,0.5,0.7l0,0
	C12.2,6.9,12,7.2,11.7,7.2z"/>
<path class="st2" d="M18.9,12.8H6.6c-0.3,0-0.6-0.3-0.6-0.7l0,0c0-0.4,0.2-0.7,0.6-0.7h12.4c0.3,0,0.6,0.3,0.6,0.7l0,0
	C19.5,12.5,19.3,12.8,18.9,12.8z"/>
<path class="st2" d="M18.9,18.4H6.6c-0.3,0-0.6-0.3-0.6-0.7l0,0C6,17.3,6.2,17,6.6,17h12.4c0.3,0,0.6,0.3,0.6,0.7l0,0
	C19.5,18,19.3,18.4,18.9,18.4z"/>
</svg>
