<?xml version="1.0" encoding="utf-8"?>
<!-- Generator: Adobe Illustrator 21.0.0, SVG Export Plug-In . SVG Version: 6.00 Build 0)  -->
<svg version="1.1" id="Layer_1" xmlns="http://www.w3.org/2000/svg" xmlns:xlink="http://www.w3.org/1999/xlink" x="0px" y="0px"
	 viewBox="0 0 24 24" style="enable-background:new 0 0 24 24;" xml:space="preserve">
<style type="text/css">
	.st0{fill:#51B4EA;}
	.st1{fill:#D5EDFB;}
	.st2{fill:#FCFDFE;}
	.st3{fill:#FFFFFF;}
</style>
<path class="st0" d="M22.8,23H1.2C0.5,23,0,22.4,0,21.8V4.5c0-0.7,0.5-1.2,1.2-1.2h21.6c0.7,0,1.2,0.5,1.2,1.2v17.3
	C24,22.4,23.5,23,22.8,23z"/>
<g>
	<g>
		<g>
			<g>
				<defs>
					<path id="SVGID_1_" d="M22.8,23H1.2C0.5,23,0,22.4,0,21.8V4.5c0-0.7,0.5-1.2,1.2-1.2h21.6c0.7,0,1.2,0.5,1.2,1.2v17.3
						C24,22.4,23.5,23,22.8,23z"/>
				</defs>
				<clipPath id="SVGID_2_">
					<use xlink:href="#SVGID_1_"  style="overflow:visible;"/>
				</clipPath>
			</g>
		</g>
	</g>
</g>
<polygon class="st1" points="7.9,12.6 1.2,19.6 14.8,19.6 "/>
<polygon class="st2" points="14.6,9.6 5.9,19.6 23.7,19.6 "/>
<circle class="st3" cx="5.1" cy="8.5" r="2.5"/>
</svg>
