<?xml version="1.0" encoding="utf-8"?>
<!-- Generator: Adobe Illustrator 21.0.0, SVG Export Plug-In . SVG Version: 6.00 Build 0)  -->
<svg version="1.1" id="Layer_1" xmlns="http://www.w3.org/2000/svg" xmlns:xlink="http://www.w3.org/1999/xlink" x="0px" y="0px"
	 viewBox="0 0 24 24" style="enable-background:new 0 0 24 24;" xml:space="preserve">
<style type="text/css">
	.st0{fill:#C03228;}
	.st1{fill:#FFFFFF;}
</style>
<g>
	<g>
		<g>
			<path class="st0" d="M20.4,24H3.6c-2,0-3.6-1.6-3.6-3.6V3.6C0,1.6,1.6,0,3.6,0h16.7c2,0,3.6,1.6,3.6,3.6v16.7
				C24,22.4,22.4,24,20.4,24z"/>
		</g>
	</g>
	<path class="st1" d="M6.4,15.6c-1.8,0.8-3.9,2.3-3.8,3.7c0,0.4,0.2,1,1.2,1.4c0.2,0.1,0.4,0.1,0.6,0.1c1,0,2.3-0.9,4.3-4.7
		c1.8-0.8,4.1-1.8,6.4-2.3c0.9,0.7,1.8,1.3,2.8,1.6c2.2,0.8,3.3,0.4,3.7-0.1c0.3-0.3,0.5-0.8,0.4-1.2c-0.3-1.4-1.6-2-4.1-2
		c-0.9,0-1.7,0.1-2.6,0.2c-1.6-1.3-3-3-3.6-3.9c0.6-1.8,1.6-5.8-0.4-6.5c-0.7-0.3-1.4-0.1-1.8,0.5C8.6,3.6,9,6.8,10.3,8.6
		c0,0.1-0.1,0.3-0.1,0.3c-1,2.7-1.8,4.6-2.6,6.1 M4.1,19.4c-0.1,0-0.3-0.1-0.3-0.2c0-0.3,0.8-1.4,2.7-2.3
		C4.9,19.7,4.2,19.4,4.1,19.4z M10.5,3.2l0.1-0.1c0,0,0.1,0.1,0.1,0.1s0.1,0.1,0.2,0.3C11.2,4.2,11,5.8,10.6,7
		C10.2,5.4,10.1,3.7,10.5,3.2z M9.3,14.3c0.5-1.2,1.2-2.7,1.8-4.4c0.7,0.8,1.5,1.9,2.6,2.9C12.2,13.2,10.7,13.7,9.3,14.3z
		 M17.8,13.5c1.6,0,2.6,0.3,2.7,0.9c-0.2,0.1-1.3,0.2-2.4-0.2c-0.9-0.3-0.9-0.4-1.4-0.7C17.1,13.5,17.5,13.5,17.8,13.5z"/>
</g>
</svg>
