<?xml version="1.0" encoding="utf-8"?>
<!-- Generator: Adobe Illustrator 21.0.0, SVG Export Plug-In . SVG Version: 6.00 Build 0)  -->
<svg version="1.1" id="Layer_1" xmlns="http://www.w3.org/2000/svg" xmlns:xlink="http://www.w3.org/1999/xlink" x="0px" y="0px"
	 viewBox="0 0 24 24" style="enable-background:new 0 0 24 24;" xml:space="preserve">
<style type="text/css">
	.st0{fill:#25BA76;}
	.st1{fill:#BDEBD7;}
	.st2{fill:#FFFFFF;}
</style>
<path class="st0" d="M23.4,7.1v15c0,1.1-0.9,2-1.9,2H3.9c-1,0-1.9-0.9-1.9-2v-20c0-1.1,0.9-2,1.9-2h12"/>
<path class="st1" d="M16.7,7.1h6.7l-7.5-7L16,6.4C16,6.8,16.3,7.1,16.7,7.1z"/>
<path class="st2" d="M11.4,14.4l-4-5.6h2.8l2.7,4.1l2.8-4.1h2.7l-4.2,5.6l4.3,6h-2.8l-2.9-4.3l-2.9,4.3H7.1L11.4,14.4z"/>
</svg>
