<?xml version="1.0" encoding="utf-8"?>
<!-- Generator: Adobe Illustrator 21.0.0, SVG Export Plug-In . SVG Version: 6.00 Build 0)  -->
<svg version="1.1" id="Layer_1" xmlns="http://www.w3.org/2000/svg" xmlns:xlink="http://www.w3.org/1999/xlink" x="0px" y="0px"
	 viewBox="0 0 40 40" style="enable-background:new 0 0 40 40;" xml:space="preserve">
<style type="text/css">
	.st0{fill:#72D6F2;}
	.st1{fill:#034561;}
	.st2{fill:#099674;}
	.st3{fill:#4FB783;}
	.st4{fill:#FEEB97;}
	.st5{fill:#155263;}
	.st6{fill:#4A936E;}
	.st7{fill:#49A57E;}
	.st8{fill:#F0B917;}
	.st9{fill:#08516B;}
	.st10{fill:#57CE8D;}
	.st11{fill:#DB4CB3;}
	.st12{fill:#2E081F;}
	.st13{fill:#FFFFFF;}
	.st14{fill:#59CDF8;}
	.st15{fill:#322E47;}
	.st16{fill:#FDB300;}
	.st17{fill:#EA6C00;}
	.st18{fill:#FDAD00;}
	.st19{fill:#FDD231;}
	.st20{fill:#FEEEB7;}
	.st21{clip-path:url(#SVGID_2_);fill:#099674;}
	.st22{clip-path:url(#SVGID_4_);fill:#4FB783;}
	.st23{clip-path:url(#SVGID_6_);fill:#099674;}
	.st24{clip-path:url(#SVGID_8_);fill:#4FB783;}
</style>
<path class="st1" d="M38,36.2H2c-1.1,0-2-0.9-2-2V5.4c0-1.1,0.9-2,2-2h36c1.1,0,2,0.9,2,2v28.8C40,35.3,39.1,36.2,38,36.2z"/>
<path class="st1" d="M38,36.2H2c-1.1,0-2-0.9-2-2V5.4c0-1.1,0.9-2,2-2h36c1.1,0,2,0.9,2,2v28.8C40,35.3,39.1,36.2,38,36.2z"/>
<circle class="st19" cx="7.5" cy="14.5" r="3.4"/>
<g>
	<defs>
		<path id="SVGID_1_" d="M38,36.2H2c-1.1,0-2-0.9-2-2V5.4c0-1.1,0.9-2,2-2h36c1.1,0,2,0.9,2,2v28.8C40,35.3,39.1,36.2,38,36.2z"/>
	</defs>
	<clipPath id="SVGID_2_">
		<use xlink:href="#SVGID_1_"  style="overflow:visible;"/>
	</clipPath>
	<polygon class="st21" points="12.6,24.3 1.6,36.4 23.7,36.4 	"/>
</g>
<g>
	<defs>
		<path id="SVGID_3_" d="M38,36.2H2c-1.1,0-2-0.9-2-2V5.4c0-1.1,0.9-2,2-2h36c1.1,0,2,0.9,2,2v28.8C40,35.3,39.1,36.2,38,36.2z"/>
	</defs>
	<clipPath id="SVGID_4_">
		<use xlink:href="#SVGID_3_"  style="overflow:visible;"/>
	</clipPath>
	<polygon class="st22" points="23.7,19.8 8.6,36.4 38.9,36.4 	"/>
</g>
</svg>
