<svg xmlns="http://www.w3.org/2000/svg" width="20" height="20" viewBox="0 0 20 20">
  <g id="组_179" data-name="组 179" transform="translate(1904 -4560)">
    <g id="路径_273" data-name="路径 273" transform="translate(-1904 4560)" fill="#a400b3">
      <path d="M 10 19.5 C 4.761680126190186 19.5 0.5 15.23832035064697 0.5 10 C 0.5 4.761680126190186 4.761680126190186 0.5 10 0.5 C 15.23832035064697 0.5 19.5 4.761680126190186 19.5 10 C 19.5 15.23832035064697 15.23832035064697 19.5 10 19.5 Z" stroke="none"/>
      <path d="M 10 1 C 5.037380218505859 1 1 5.037380218505859 1 10 C 1 14.96261978149414 5.037380218505859 19 10 19 C 14.96261978149414 19 19 14.96261978149414 19 10 C 19 5.037380218505859 14.96261978149414 1 10 1 M 10 0 C 15.52285003662109 0 20 4.477149963378906 20 10 C 20 15.52285003662109 15.52285003662109 20 10 20 C 4.477149963378906 20 0 15.52285003662109 0 10 C 0 4.477149963378906 4.477149963378906 0 10 0 Z" stroke="none" fill="#fff"/>
    </g>
    <g id="组_166" data-name="组 166" transform="translate(4.389 -8.609)">
      <rect id="矩形_2" data-name="矩形 2" width="11.999" height="12.001" transform="translate(-1904.385 4572.609)" fill="none"/>
      <path id="路径_7" data-name="路径 7" d="M5.887,13.305H4.661l-1.339-2.25a3.12,3.12,0,0,0-.75-.915A1.32,1.32,0,0,0,1.777,9.9h-.75V13.29H0V5.242H2.456A2.756,2.756,0,0,1,4.3,5.808,1.973,1.973,0,0,1,4.965,7.4,2.127,2.127,0,0,1,3.172,9.574V9.6a1.654,1.654,0,0,1,.577.4,5.974,5.974,0,0,1,.626.889ZM1.042,6.153V9H2.269a1.627,1.627,0,0,0,1.159-.416,1.425,1.425,0,0,0,.446-1.1,1.238,1.238,0,0,0-.4-.983,1.747,1.747,0,0,0-1.181-.353Z" transform="translate(-1904.385 4569.336)" fill="#fff"/>
      <path id="路径_8" data-name="路径 8" d="M19.6,10.289v3H18.56V5.241h2.291a3,3,0,0,1,2.029.63,2.25,2.25,0,0,1,.72,1.8,2.43,2.43,0,0,1-.844,1.924,2.932,2.932,0,0,1-2.107.694Zm0-4.125V9.381h.964a2.149,2.149,0,0,0,1.447-.431,1.541,1.541,0,0,0,.495-1.23q0-1.556-1.845-1.556Z" transform="translate(-1915.985 4569.339)" fill="#fff"/>
    </g>
  </g>
</svg>
