<?xml version="1.0" encoding="utf-8"?>
<!-- Generator: Adobe Illustrator 21.0.0, SVG Export Plug-In . SVG Version: 6.00 Build 0)  -->
<svg version="1.1" id="Layer_1" xmlns="http://www.w3.org/2000/svg" xmlns:xlink="http://www.w3.org/1999/xlink" x="0px" y="0px"
	 viewBox="0 0 24 24" style="enable-background:new 0 0 24 24;" xml:space="preserve">
<style type="text/css">
	.st0{fill:#E26324;}
	.st1{fill:#FFD0C8;}
	.st2{fill:#FFFFFF;}
</style>
<path class="st0" d="M23,7v15c0,1.1-0.9,2-1.9,2H3.5c-1,0-1.9-0.9-1.9-2V2c0-1.1,0.9-2,1.9-2h12"/>
<path class="st1" d="M16.3,7H23l-7.5-7l0.1,6.3C15.6,6.7,15.9,7,16.3,7z"/>
<path class="st2" d="M7.5,8.5h6.7c2.6,0,3.5,1.8,3.5,3.7c0,1.9-1.1,3.7-3.5,3.7H9.7v4.6H7.5V8.5z M9.7,14h3.7c1.3,0,2-0.4,2-1.8
	c0-1.4-1-1.9-1.9-1.9H9.7V14z"/>
</svg>
